<svg width="20" height="20" viewBox="0 0 20 20" fill="none" xmlns="http://www.w3.org/2000/svg">
    <path fill-rule="evenodd" clip-rule="evenodd" d="M13.3267 3.05664L13.3535 3.07331C13.7319 3.28664 13.7787 3.18664 14.127 2.99331C14.4049 2.83664 14.6862 2.67998 14.9641 2.51998C15.2085 2.37998 15.3023 2.28998 15.5601 2.48998C16.2666 3.03664 16.8961 3.68331 17.4486 4.38331C17.6629 4.65331 17.4988 4.78664 17.3515 5.03998C17.1774 5.34331 17.01 5.64664 16.8291 5.94664C16.6148 6.29664 16.7756 6.38664 16.9363 6.71331C17.087 7.02664 17.2243 7.34998 17.3281 7.67998C17.4151 7.96664 17.4218 8.07664 17.7466 8.15998C18.1585 8.26331 18.5636 8.37998 18.9721 8.48331C19.3304 8.57331 19.3003 8.77998 19.3271 9.09664C19.3974 9.93998 19.4074 10.6766 19.2969 11.5233C19.2534 11.8766 19.0023 11.8566 18.711 11.9366C18.4431 12.01 18.1786 12.0833 17.9107 12.1566C17.4888 12.2666 17.4419 12.2366 17.3214 12.68C17.2243 13.02 17.0234 13.4933 16.8492 13.8C16.6349 14.1766 16.7354 14.2266 16.9262 14.57C17.1037 14.88 17.2778 15.19 17.462 15.4966C17.6562 15.82 17.4754 15.9333 17.2745 16.1866C16.799 16.7766 16.2934 17.2666 15.7041 17.74C15.386 17.9933 15.3391 18.07 14.9641 17.8366C14.6393 17.6333 14.291 17.4566 13.9629 17.2566C13.6113 17.0466 13.5176 17.2066 13.1894 17.3666C12.8914 17.51 12.5867 17.6366 12.2719 17.7366C11.9103 17.85 11.8233 17.83 11.7262 18.23C11.6391 18.6033 11.5219 18.97 11.4281 19.3433C11.331 19.7466 11.1469 19.7066 10.7853 19.7466C10.0252 19.8333 9.3086 19.8166 8.54851 19.7366C8.19023 19.7 8.08978 19.7233 7.99937 19.34C7.90896 18.9333 7.77503 18.53 7.67123 18.1233C7.58752 17.7933 7.43349 17.83 7.14553 17.7333C6.7839 17.6133 6.42896 17.4733 6.09412 17.2966C5.76598 17.1166 5.75258 17.09 5.41774 17.29C5.11973 17.47 4.80833 17.63 4.50697 17.8066C4.17548 17.9966 4.13195 18.08 3.80715 17.8066C3.09059 17.2066 2.5448 16.6966 1.96218 15.9466C1.76797 15.6933 1.93874 15.5466 2.07602 15.31C2.26019 14.9933 2.4343 14.6733 2.62516 14.36C2.80263 14.06 2.65195 13.96 2.51466 13.6833C2.33385 13.32 2.17313 12.93 2.06263 12.54C1.96887 12.2066 1.81485 12.2366 1.51684 12.1533C1.1619 12.0533 0.810321 11.9566 0.45204 11.87C0.107154 11.7866 0.143986 11.63 0.107154 11.3233C0.0133979 10.5466 0.0234432 9.81998 0.103805 9.04331C0.140638 8.72664 0.100457 8.56664 0.45204 8.48331C0.870593 8.38331 1.28245 8.25331 1.70435 8.14998C2.06933 8.05998 2.02245 7.90664 2.1296 7.59331C2.24679 7.24998 2.38742 6.89331 2.56154 6.57331C2.73901 6.24998 2.76914 6.22998 2.56824 5.89998C2.39077 5.60998 2.2334 5.30998 2.06263 5.01664C1.86172 4.67331 1.77132 4.62664 2.05593 4.28664C2.6419 3.58331 3.14417 3.06998 3.87077 2.48998C4.16543 2.25664 4.29602 2.42664 4.57729 2.58664C4.89204 2.76331 5.20009 2.93664 5.5115 3.11664C5.81285 3.29331 5.9334 3.13664 6.20462 2.99998C-6.73031 22.0633 25.9837 21.67 13.3267 3.05664Z" fill="white"/>
    <path fill-rule="evenodd" clip-rule="evenodd" d="M9.71701 0.179993C29.0407 21.0733 -9.63349 21.6033 9.71701 0.179993V0.179993Z" fill="white"/>
</svg>
