<svg width="49" height="50" viewBox="0 0 49 50" fill="none" xmlns="http://www.w3.org/2000/svg">
    <path fill-rule="evenodd" clip-rule="evenodd" d="M33.1667 7.64167L33.2333 7.68334C34.175 8.21667 34.2917 7.96667 35.1583 7.48334C35.85 7.09167 36.55 6.7 37.2417 6.3C37.85 5.95 38.0833 5.725 38.725 6.225C40.4833 7.59167 42.05 9.20834 43.425 10.9583C43.9583 11.6333 43.55 11.9667 43.1833 12.6C42.75 13.3583 42.3333 14.1167 41.8833 14.8667C41.35 15.7417 41.75 15.9667 42.15 16.7833C42.525 17.5667 42.8667 18.375 43.125 19.2C43.3417 19.9167 43.3583 20.1917 44.1667 20.4C45.1917 20.6583 46.2 20.95 47.2167 21.2083C48.1083 21.4333 48.0333 21.95 48.1 22.7417C48.275 24.85 48.3 26.6917 48.025 28.8083C47.9167 29.6917 47.2917 29.6417 46.5667 29.8417C45.9 30.025 45.2417 30.2083 44.575 30.3917C43.525 30.6667 43.4083 30.5917 43.1083 31.7C42.8667 32.55 42.3667 33.7333 41.9333 34.5C41.4 35.4417 41.65 35.5667 42.125 36.425C42.5667 37.2 43 37.975 43.4583 38.7417C43.9417 39.55 43.4917 39.8333 42.9917 40.4667C41.8083 41.9417 40.55 43.1667 39.0833 44.35C38.2917 44.9833 38.175 45.175 37.2417 44.5917C36.4333 44.0833 35.5667 43.6417 34.75 43.1417C33.875 42.6167 33.6417 43.0167 32.825 43.4167C32.0833 43.775 31.325 44.0917 30.5417 44.3417C29.6417 44.625 29.425 44.575 29.1833 45.575C28.9667 46.5083 28.675 47.425 28.4417 48.3583C28.2 49.3667 27.7417 49.2667 26.8417 49.3667C24.95 49.5833 23.1667 49.5417 21.275 49.3417C20.3833 49.25 20.1333 49.3083 19.9083 48.35C19.6833 47.3333 19.35 46.325 19.0917 45.3083C18.8833 44.4833 18.5 44.575 17.7833 44.3333C16.8833 44.0333 16 43.6833 15.1667 43.2417C14.35 42.7917 14.3167 42.725 13.4833 43.225C12.7417 43.675 11.9667 44.075 11.2167 44.5167C10.3917 44.9917 10.2833 45.2 9.47501 44.5167C7.69167 43.0167 6.33334 41.7417 4.88334 39.8667C4.4 39.2333 4.82501 38.8667 5.16667 38.275C5.62501 37.4833 6.05834 36.6833 6.53334 35.9C6.97501 35.15 6.60001 34.9 6.25834 34.2083C5.80834 33.3 5.40834 32.325 5.13334 31.35C4.90001 30.5167 4.51667 30.5917 3.77501 30.3833C2.89167 30.1333 2.01667 29.8917 1.12501 29.675C0.266672 29.4667 0.358338 29.075 0.266672 28.3083C0.0333384 26.3667 0.0583384 24.55 0.258338 22.6083C0.350005 21.8167 0.250005 21.4167 1.12501 21.2083C2.16667 20.9583 3.19167 20.6333 4.24167 20.375C5.15001 20.15 5.03334 19.7667 5.3 18.9833C5.59167 18.125 5.94167 17.2333 6.37501 16.4333C6.81667 15.625 6.89167 15.575 6.39167 14.75C5.95001 14.025 5.55834 13.275 5.13334 12.5417C4.63334 11.6833 4.40834 11.5667 5.11667 10.7167C6.57501 8.95834 7.82501 7.675 9.63334 6.225C10.3667 5.64167 10.6917 6.06667 11.3917 6.46667C12.175 6.90834 12.9417 7.34167 13.7167 7.79167C14.4667 8.23334 14.7667 7.84167 15.4417 7.5C-16.75 55.1583 64.6667 54.175 33.1667 7.64167Z" fill="white"/>
    <path fill-rule="evenodd" clip-rule="evenodd" d="M24.1833 0.450012C72.275 52.6833 -23.975 54.0083 24.1833 0.450012V0.450012Z" fill="white"/>
</svg>
