<svg width="128" height="128" viewBox="0 0 128 128" fill="none" xmlns="http://www.w3.org/2000/svg">
    <path d="M63.9981 0C38.0163 0 16.8762 21.1401 16.8762 47.1245C16.8762 53.9022 18.2635 60.3734 20.9973 66.3599C32.7791 92.1412 55.3681 119.361 62.0122 127.088C62.5099 127.666 63.2357 127.999 63.9994 127.999C64.7631 127.999 65.4888 127.666 65.9866 127.088C72.6281 119.362 95.217 92.1438 107.003 66.3599C109.738 60.3734 111.124 53.9022 111.124 47.1245C111.121 21.1401 89.9811 0 63.9981 0ZM63.9981 71.601C50.5016 71.601 39.5202 60.6197 39.5202 47.1231C39.5202 33.6253 50.5016 22.6439 63.9981 22.6439C77.4946 22.6439 88.476 33.6253 88.476 47.1231C88.4773 60.6197 77.4959 71.601 63.9981 71.601Z" fill="#1D6499"/>
    <path d="M52.9916 35.4586C53.6895 34.7448 54.3045 34.1267 54.3582 34.0852C54.607 33.8928 54.8641 33.9948 55.9529 34.7181C56.1202 34.8293 56.341 34.9757 56.4433 35.0435C56.5457 35.1112 56.8011 35.2541 57.0109 35.3608L57.3922 35.5552L57.5749 35.483C57.6753 35.4434 57.8347 35.3549 57.9291 35.2864C58.223 35.0733 58.2269 35.0921 58.0035 35.6488C57.6486 35.8792 56.2762 37.9982 55.6343 39.0289C54.3582 40.6948 54.0951 41.921 53.6103 43.1361C53.2004 44.1638 52.9149 45.7013 52.8532 46.2651C52.7561 46.7387 52.6073 48.556 52.7533 49.391C53.2823 52.4179 54.479 54.7048 56.4839 56.5207C57.388 57.3397 58.7689 58.209 59.9026 58.6728C63.5605 60.1698 68.166 59.401 71.1544 56.7948C71.7276 56.2951 72.6767 55.2856 72.9627 54.8717C73.3846 54.261 74.1423 52.9636 74.1423 52.8516C74.1423 52.8436 74.2164 52.6742 74.3069 52.4753C74.6241 51.7787 74.9128 50.8596 75.051 50.1058C75.2526 49.0055 75.2981 47.1688 75.1414 46.4565C75.1119 46.3224 75.0651 46.0085 75.0375 45.7587C74.8996 44.5132 74.7224 44.0025 73.6842 41.859C72.716 39.8603 71.4826 37.6466 70.2557 35.7056C69.9732 35.2588 69.9727 35.2823 70.2617 35.3905C70.7407 35.5698 70.9314 35.4941 72.2271 34.6108C73.034 34.0606 73.1683 33.9926 73.3866 34.0229C73.6335 34.0573 73.7562 34.1699 75.3498 35.8253C76.9312 37.4683 77.0847 37.6507 77.0861 37.8893C77.0867 37.9854 76.7623 38.5986 76.4834 39.0289C75.8732 39.9699 75.5815 40.5276 75.6119 40.6948C75.6229 40.7559 75.79 41.1347 75.9832 41.5366C76.4485 42.5048 76.4604 42.535 76.7134 43.3845C76.8766 43.9327 76.9949 44.0061 78.1185 44.2566C79.0111 44.4557 79.1804 44.4968 79.4997 44.5928C79.9042 44.7143 79.8782 44.6975 79.9443 44.8775C80.0349 45.1238 80.0078 49.8905 79.9148 50.0838C79.8188 50.2833 79.5711 50.371 78.4231 50.6112C77.212 50.8647 76.9634 50.9633 76.7966 51.2566C76.618 51.5703 76.5444 51.9179 76.5444 51.9179L76.3829 52.423C76.3829 52.423 76.2484 52.8951 76.027 53.2969C75.8508 53.6169 75.647 54.0679 75.6034 54.2342C75.5655 54.3788 75.7294 54.7544 76.0642 55.2906L76.3587 55.762C76.6784 56.2737 76.7446 56.3862 76.8951 56.6735C77.1904 57.2367 77.1943 57.2292 75.9059 58.5379C75.3386 59.114 74.6374 59.8283 74.3476 60.1253C73.3305 61.168 73.422 61.1733 71.616 59.9659C70.6711 59.3341 70.548 59.3312 69.506 59.9158C69.2384 60.0661 68.8967 60.2085 68.1693 60.4732C67.3539 60.7699 67.356 60.7667 67.0726 62.0819C66.8671 63.0361 66.8186 63.2382 66.738 63.4784C66.5492 64.0403 66.7237 64.0091 63.8545 63.9937C61.0723 63.9787 61.3177 64.031 61.1832 63.4261C61.1448 63.2533 61.0748 62.939 61.0276 62.7277C60.9803 62.5165 60.9102 62.2023 60.8719 62.0295C60.8009 61.7092 60.7311 61.4336 60.6219 61.0425C60.545 60.7667 60.4256 60.6938 59.5567 60.3926C59.1228 60.2422 58.7983 60.0993 58.3424 59.8581C57.9506 59.6509 57.4518 59.4683 57.4518 59.4683C57.2905 59.4134 57.0461 59.5233 56.0497 60.1639C54.795 60.9707 54.6814 61.0228 54.4235 60.9117C54.2199 60.8239 51.0539 57.5258 50.9789 57.3233C50.8916 57.0874 51.0431 56.711 51.546 55.9129C52.5158 54.3743 52.5159 54.3738 51.9627 53.2133C51.8208 52.9157 51.6833 52.6093 51.6569 52.5325L51.4512 51.9305C51.0957 50.8892 51.0161 50.8385 49.1337 50.4546C48.4473 50.3145 48.1597 50.2166 48.0697 50.0922C48.0008 49.9971 48 49.9662 48 47.4933V44.9906L48.0783 44.8393C48.2019 44.6003 48.4305 44.5157 49.5059 44.3112C51.0824 44.0117 51.1055 43.9959 51.447 42.9792C51.5463 42.6836 51.6679 42.351 51.7173 42.24C51.7667 42.1291 51.8071 42.0321 51.8071 42.0247C51.8071 42.0172 51.8969 41.8169 52.0065 41.5796C52.507 40.497 52.5106 40.539 51.819 39.4489C51.4628 38.8876 51.1038 38.2519 50.9808 37.9647C50.869 37.7033 51.1832 37.1363 51.6041 36.8399C51.6692 36.7941 52.2936 36.1725 52.9916 35.4586Z" fill="#1D6499"/>
    <path d="M54 49.3333C54 42.0112 60.6259 34.7037 64.1264 31L65.382 32.7222C68.4068 36.7778 74 41.9358 74 49.3333C74 54.6061 67.4331 58 63.9231 58C60.1538 58 54 54.4553 54 49.3333Z" fill="#1D6499"/>
</svg>
